<?xml version="1.0" encoding="UTF-8" standalone="no"?>
<!DOCTYPE svg PUBLIC "-//W3C//DTD SVG 1.1//EN"
 "http://www.w3.org/Graphics/SVG/1.1/DTD/svg11.dtd">
<!-- Generated by graphviz version 2.47.0 (20210316.0004)
 -->
<!-- Title: dependencies Pages: 1 -->
<svg width="3598pt" height="298pt"
 viewBox="0.00 0.00 3598.00 298.00" xmlns="http://www.w3.org/2000/svg" xmlns:xlink="http://www.w3.org/1999/xlink">
<g id="graph0" class="graph" transform="scale(1 1) rotate(0) translate(4 294)">
<title>dependencies</title>
<polygon fill="white" stroke="transparent" points="-4,4 -4,-294 3594,-294 3594,4 -4,4"/>
<text text-anchor="start" x="1774.01" y="-42.4" font-family="Times-12" font-weight="bold" font-size="14.00">Legend</text>
<polygon fill="#ffffb3" stroke="transparent" points="1561,-10 1561,-30 1581,-30 1581,-10 1561,-10"/>
<text text-anchor="start" x="1584.63" y="-15.4" font-family="Times-12" font-size="14.00"> &#160;Declarations</text>
<polygon fill="#8dd3c7" stroke="transparent" points="1674,-10 1674,-30 1694,-30 1694,-10 1674,-10"/>
<text text-anchor="start" x="1697.73" y="-15.4" font-family="Times-12" font-size="14.00"> &#160;Module</text>
<polygon fill="#80b1d3" stroke="transparent" points="1760,-10 1760,-30 1780,-30 1780,-10 1760,-10"/>
<text text-anchor="start" x="1783.78" y="-15.4" font-family="Times-12" font-size="14.00"> &#160;Bootstrap</text>
<polygon fill="#fdb462" stroke="transparent" points="1857,-10 1857,-30 1877,-30 1877,-10 1857,-10"/>
<text text-anchor="start" x="1880.67" y="-15.4" font-family="Times-12" font-size="14.00"> &#160;Providers</text>
<polygon fill="#fb8072" stroke="transparent" points="1953,-10 1953,-30 1973,-30 1973,-10 1953,-10"/>
<text text-anchor="start" x="1976.73" y="-15.4" font-family="Times-12" font-size="14.00"> &#160;Exports</text>
<g id="clust1" class="cluster">
<title>cluster_AppModule</title>
<polygon fill="none" stroke="black" stroke-dasharray="1,5" points="103,-146 103,-274 1679,-274 1679,-146 103,-146"/>
</g>
<g id="clust3" class="cluster">
<title>cluster_AppModule_imports</title>
<polygon fill="none" stroke="black" points="249,-154 249,-206 1671,-206 1671,-154 249,-154"/>
</g>
<g id="clust6" class="cluster">
<title>cluster_AppModule_providers</title>
<polygon fill="none" stroke="black" points="111,-154 111,-206 241,-206 241,-154 111,-154"/>
</g>
<g id="clust7" class="cluster">
<title>cluster_AppointmentModule</title>
<polygon fill="none" stroke="black" stroke-dasharray="1,5" points="8,-70 8,-138 222,-138 222,-70 8,-70"/>
</g>
<g id="clust12" class="cluster">
<title>cluster_AppointmentModule_providers</title>
<polygon fill="none" stroke="black" points="16,-78 16,-130 214,-130 214,-78 16,-78"/>
</g>
<g id="clust13" class="cluster">
<title>cluster_AuthModule</title>
<polygon fill="none" stroke="black" stroke-dasharray="1,5" points="1687,-214 1687,-282 2461,-282 2461,-214 1687,-214"/>
</g>
<g id="clust16" class="cluster">
<title>cluster_AuthModule_exports</title>
<polygon fill="none" stroke="black" points="2123,-222 2123,-274 2453,-274 2453,-222 2123,-222"/>
</g>
<g id="clust18" class="cluster">
<title>cluster_AuthModule_providers</title>
<polygon fill="none" stroke="black" points="1695,-222 1695,-274 2115,-274 2115,-222 1695,-222"/>
</g>
<g id="clust19" class="cluster">
<title>cluster_DoctorModule</title>
<polygon fill="none" stroke="black" stroke-dasharray="1,5" points="230,-70 230,-138 396,-138 396,-70 230,-70"/>
</g>
<g id="clust24" class="cluster">
<title>cluster_DoctorModule_providers</title>
<polygon fill="none" stroke="black" points="238,-78 238,-130 388,-130 388,-78 238,-78"/>
</g>
<g id="clust25" class="cluster">
<title>cluster_InvoiceModule</title>
<polygon fill="none" stroke="black" stroke-dasharray="1,5" points="404,-70 404,-138 574,-138 574,-70 404,-70"/>
</g>
<g id="clust30" class="cluster">
<title>cluster_InvoiceModule_providers</title>
<polygon fill="none" stroke="black" points="412,-78 412,-130 566,-130 566,-78 412,-78"/>
</g>
<g id="clust31" class="cluster">
<title>cluster_MedicineModule</title>
<polygon fill="none" stroke="black" stroke-dasharray="1,5" points="582,-70 582,-138 766,-138 766,-70 582,-70"/>
</g>
<g id="clust36" class="cluster">
<title>cluster_MedicineModule_providers</title>
<polygon fill="none" stroke="black" points="590,-78 590,-130 758,-130 758,-78 590,-78"/>
</g>
<g id="clust37" class="cluster">
<title>cluster_OfficeModule</title>
<polygon fill="none" stroke="black" stroke-dasharray="1,5" points="774,-70 774,-138 936,-138 936,-70 774,-70"/>
</g>
<g id="clust42" class="cluster">
<title>cluster_OfficeModule_providers</title>
<polygon fill="none" stroke="black" points="782,-78 782,-130 928,-130 928,-78 782,-78"/>
</g>
<g id="clust43" class="cluster">
<title>cluster_PatientModule</title>
<polygon fill="none" stroke="black" stroke-dasharray="1,5" points="944,-70 944,-138 1110,-138 1110,-70 944,-70"/>
</g>
<g id="clust48" class="cluster">
<title>cluster_PatientModule_providers</title>
<polygon fill="none" stroke="black" points="952,-78 952,-130 1102,-130 1102,-78 952,-78"/>
</g>
<g id="clust49" class="cluster">
<title>cluster_PersonModule</title>
<polygon fill="none" stroke="black" stroke-dasharray="1,5" points="2469,-214 2469,-282 2757,-282 2757,-214 2469,-214"/>
</g>
<g id="clust52" class="cluster">
<title>cluster_PersonModule_exports</title>
<polygon fill="none" stroke="black" points="2633,-222 2633,-274 2749,-274 2749,-222 2633,-222"/>
</g>
<g id="clust54" class="cluster">
<title>cluster_PersonModule_providers</title>
<polygon fill="none" stroke="black" points="2477,-222 2477,-274 2625,-274 2625,-222 2477,-222"/>
</g>
<g id="clust55" class="cluster">
<title>cluster_PrescriptionDetailModule</title>
<polygon fill="none" stroke="black" stroke-dasharray="1,5" points="1118,-70 1118,-138 1370,-138 1370,-70 1118,-70"/>
</g>
<g id="clust60" class="cluster">
<title>cluster_PrescriptionDetailModule_providers</title>
<polygon fill="none" stroke="black" points="1126,-78 1126,-130 1362,-130 1362,-78 1126,-78"/>
</g>
<g id="clust61" class="cluster">
<title>cluster_PrescriptionModule</title>
<polygon fill="none" stroke="black" stroke-dasharray="1,5" points="1378,-70 1378,-138 1584,-138 1584,-70 1378,-70"/>
</g>
<g id="clust66" class="cluster">
<title>cluster_PrescriptionModule_providers</title>
<polygon fill="none" stroke="black" points="1386,-78 1386,-130 1576,-130 1576,-78 1386,-78"/>
</g>
<g id="clust73" class="cluster">
<title>cluster_TemplatePlaygroundModule</title>
<polygon fill="none" stroke="black" stroke-dasharray="1,5" points="2765,-70 2765,-282 3582,-282 3582,-70 2765,-70"/>
</g>
<g id="clust74" class="cluster">
<title>cluster_TemplatePlaygroundModule_declarations</title>
<polygon fill="none" stroke="black" points="3360,-78 3360,-130 3574,-130 3574,-78 3360,-78"/>
</g>
<g id="clust78" class="cluster">
<title>cluster_TemplatePlaygroundModule_bootstrap</title>
<polygon fill="none" stroke="black" points="3051,-222 3051,-274 3269,-274 3269,-222 3051,-222"/>
</g>
<g id="clust79" class="cluster">
<title>cluster_TemplatePlaygroundModule_providers</title>
<polygon fill="none" stroke="black" points="2773,-78 2773,-130 3352,-130 3352,-78 2773,-78"/>
</g>
<!-- AppointmentModule -->
<g id="node1" class="node">
<title>AppointmentModule</title>
<polygon fill="#8dd3c7" stroke="black" points="390.93,-198 387.93,-202 366.93,-202 363.93,-198 257.07,-198 257.07,-162 390.93,-162 390.93,-198"/>
<text text-anchor="middle" x="324" y="-175.8" font-family="Times,serif" font-size="14.00">AppointmentModule</text>
</g>
<!-- AppModule -->
<g id="node12" class="node">
<title>AppModule</title>
<polygon fill="#8dd3c7" stroke="black" points="921.66,-266 918.66,-270 897.66,-270 894.66,-266 838.34,-266 838.34,-230 921.66,-230 921.66,-266"/>
<text text-anchor="middle" x="880" y="-243.8" font-family="Times,serif" font-size="14.00">AppModule</text>
</g>
<!-- AppointmentModule&#45;&gt;AppModule -->
<g id="edge1" class="edge">
<title>AppointmentModule&#45;&gt;AppModule</title>
<path fill="none" stroke="black" d="M324,-198.29C324,-220.21 324,-254 324,-254 324,-254 828.21,-254 828.21,-254"/>
<polygon fill="black" stroke="black" points="828.21,-257.5 838.21,-254 828.21,-250.5 828.21,-257.5"/>
</g>
<!-- AuthModule -->
<g id="node2" class="node">
<title>AuthModule</title>
<polygon fill="#8dd3c7" stroke="black" points="1546.55,-198 1543.55,-202 1522.55,-202 1519.55,-198 1459.45,-198 1459.45,-162 1546.55,-162 1546.55,-198"/>
<text text-anchor="middle" x="1503" y="-175.8" font-family="Times,serif" font-size="14.00">AuthModule</text>
</g>
<!-- AuthModule&#45;&gt;AppModule -->
<g id="edge2" class="edge">
<title>AuthModule&#45;&gt;AppModule</title>
<path fill="none" stroke="black" d="M1503,-198.01C1503,-220.49 1503,-256 1503,-256 1503,-256 931.84,-256 931.84,-256"/>
<polygon fill="black" stroke="black" points="931.84,-252.5 921.84,-256 931.84,-259.5 931.84,-252.5"/>
</g>
<!-- AuthService  -->
<g id="node15" class="node">
<title>AuthService </title>
<polygon fill="#fb8072" stroke="black" points="2340.98,-266 2251.02,-266 2251.02,-230 2340.98,-230 2340.98,-266"/>
<text text-anchor="middle" x="2296" y="-243.8" font-family="Times,serif" font-size="14.00">AuthService </text>
</g>
<!-- AuthModule&#45;&gt;AuthService  -->
<g id="edge14" class="edge">
<title>AuthModule&#45;&gt;AuthService </title>
<path fill="none" stroke="black" stroke-dasharray="5,2" d="M1481.11,-198.2C1481.11,-204.03 1481.11,-209 1481.11,-209 1481.11,-209 2296,-209 2296,-209 2296,-209 2296,-219.87 2296,-219.87"/>
<polygon fill="black" stroke="black" points="2292.5,-219.87 2296,-229.87 2299.5,-219.87 2292.5,-219.87"/>
</g>
<!-- JwtAuthGuard  -->
<g id="node16" class="node">
<title>JwtAuthGuard </title>
<polygon fill="#fb8072" stroke="black" points="2232.92,-266 2131.08,-266 2131.08,-230 2232.92,-230 2232.92,-266"/>
<text text-anchor="middle" x="2182" y="-243.8" font-family="Times,serif" font-size="14.00">JwtAuthGuard </text>
</g>
<!-- AuthModule&#45;&gt;JwtAuthGuard  -->
<g id="edge15" class="edge">
<title>AuthModule&#45;&gt;JwtAuthGuard </title>
<path fill="none" stroke="black" stroke-dasharray="5,2" d="M1470.17,-198.19C1470.17,-206.28 1470.17,-214 1470.17,-214 1470.17,-214 2182,-214 2182,-214 2182,-214 2182,-219.81 2182,-219.81"/>
<polygon fill="black" stroke="black" points="2178.5,-219.81 2182,-229.81 2185.5,-219.81 2178.5,-219.81"/>
</g>
<!-- RolesGuard  -->
<g id="node17" class="node">
<title>RolesGuard </title>
<polygon fill="#fb8072" stroke="black" points="2445.37,-266 2358.63,-266 2358.63,-230 2445.37,-230 2445.37,-266"/>
<text text-anchor="middle" x="2402" y="-243.8" font-family="Times,serif" font-size="14.00">RolesGuard </text>
</g>
<!-- AuthModule&#45;&gt;RolesGuard  -->
<g id="edge16" class="edge">
<title>AuthModule&#45;&gt;RolesGuard </title>
<path fill="none" stroke="black" stroke-dasharray="5,2" d="M1492.06,-198.19C1492.06,-201.54 1492.06,-204 1492.06,-204 1492.06,-204 2402,-204 2402,-204 2402,-204 2402,-219.85 2402,-219.85"/>
<polygon fill="black" stroke="black" points="2398.5,-219.85 2402,-229.85 2405.5,-219.85 2398.5,-219.85"/>
</g>
<!-- DoctorModule -->
<g id="node3" class="node">
<title>DoctorModule</title>
<polygon fill="#8dd3c7" stroke="black" points="507.42,-198 504.42,-202 483.42,-202 480.42,-198 408.58,-198 408.58,-162 507.42,-162 507.42,-198"/>
<text text-anchor="middle" x="458" y="-175.8" font-family="Times,serif" font-size="14.00">DoctorModule</text>
</g>
<!-- DoctorModule&#45;&gt;AppModule -->
<g id="edge3" class="edge">
<title>DoctorModule&#45;&gt;AppModule</title>
<path fill="none" stroke="black" d="M458,-198.22C458,-218.37 458,-248 458,-248 458,-248 827.99,-248 827.99,-248"/>
<polygon fill="black" stroke="black" points="827.99,-251.5 837.99,-248 827.99,-244.5 827.99,-251.5"/>
</g>
<!-- InvoiceModule -->
<g id="node4" class="node">
<title>InvoiceModule</title>
<polygon fill="#8dd3c7" stroke="black" points="626.53,-198 623.53,-202 602.53,-202 599.53,-198 525.47,-198 525.47,-162 626.53,-162 626.53,-198"/>
<text text-anchor="middle" x="576" y="-175.8" font-family="Times,serif" font-size="14.00">InvoiceModule</text>
</g>
<!-- InvoiceModule&#45;&gt;AppModule -->
<g id="edge4" class="edge">
<title>InvoiceModule&#45;&gt;AppModule</title>
<path fill="none" stroke="black" d="M576,-198.27C576,-216.56 576,-242 576,-242 576,-242 828.05,-242 828.05,-242"/>
<polygon fill="black" stroke="black" points="828.05,-245.5 838.05,-242 828.05,-238.5 828.05,-245.5"/>
</g>
<!-- MedicineModule -->
<g id="node5" class="node">
<title>MedicineModule</title>
<polygon fill="#8dd3c7" stroke="black" points="757.42,-198 754.42,-202 733.42,-202 730.42,-198 644.58,-198 644.58,-162 757.42,-162 757.42,-198"/>
<text text-anchor="middle" x="701" y="-175.8" font-family="Times,serif" font-size="14.00">MedicineModule</text>
</g>
<!-- MedicineModule&#45;&gt;AppModule -->
<g id="edge5" class="edge">
<title>MedicineModule&#45;&gt;AppModule</title>
<path fill="none" stroke="black" d="M701,-198.03C701,-214.4 701,-236 701,-236 701,-236 828.03,-236 828.03,-236"/>
<polygon fill="black" stroke="black" points="828.03,-239.5 838.03,-236 828.03,-232.5 828.03,-239.5"/>
</g>
<!-- OfficeModule -->
<g id="node6" class="node">
<title>OfficeModule</title>
<polygon fill="#8dd3c7" stroke="black" points="870.8,-198 867.8,-202 846.8,-202 843.8,-198 775.2,-198 775.2,-162 870.8,-162 870.8,-198"/>
<text text-anchor="middle" x="823" y="-175.8" font-family="Times,serif" font-size="14.00">OfficeModule</text>
</g>
<!-- OfficeModule&#45;&gt;AppModule -->
<g id="edge6" class="edge">
<title>OfficeModule&#45;&gt;AppModule</title>
<path fill="none" stroke="black" d="M854.41,-198.22C854.41,-198.22 854.41,-219.73 854.41,-219.73"/>
<polygon fill="black" stroke="black" points="850.91,-219.73 854.41,-229.73 857.91,-219.73 850.91,-219.73"/>
</g>
<!-- PatientModule -->
<g id="node7" class="node">
<title>PatientModule</title>
<polygon fill="#8dd3c7" stroke="black" points="987.43,-198 984.43,-202 963.43,-202 960.43,-198 888.57,-198 888.57,-162 987.43,-162 987.43,-198"/>
<text text-anchor="middle" x="938" y="-175.8" font-family="Times,serif" font-size="14.00">PatientModule</text>
</g>
<!-- PatientModule&#45;&gt;AppModule -->
<g id="edge7" class="edge">
<title>PatientModule&#45;&gt;AppModule</title>
<path fill="none" stroke="black" d="M905.31,-198.22C905.31,-198.22 905.31,-219.73 905.31,-219.73"/>
<polygon fill="black" stroke="black" points="901.81,-219.73 905.31,-229.73 908.81,-219.73 901.81,-219.73"/>
</g>
<!-- PersonModule -->
<g id="node8" class="node">
<title>PersonModule</title>
<polygon fill="#8dd3c7" stroke="black" points="1662.65,-198 1659.65,-202 1638.65,-202 1635.65,-198 1565.35,-198 1565.35,-162 1662.65,-162 1662.65,-198"/>
<text text-anchor="middle" x="1614" y="-175.8" font-family="Times,serif" font-size="14.00">PersonModule</text>
</g>
<!-- PersonModule&#45;&gt;AppModule -->
<g id="edge8" class="edge">
<title>PersonModule&#45;&gt;AppModule</title>
<path fill="none" stroke="black" d="M1614,-198.38C1614,-222.28 1614,-261 1614,-261 1614,-261 931.83,-261 931.83,-261"/>
<polygon fill="black" stroke="black" points="931.83,-257.5 921.83,-261 931.83,-264.5 931.83,-257.5"/>
</g>
<!-- PersonService  -->
<g id="node26" class="node">
<title>PersonService </title>
<polygon fill="#fb8072" stroke="black" points="2740.58,-266 2641.42,-266 2641.42,-230 2740.58,-230 2740.58,-266"/>
<text text-anchor="middle" x="2691" y="-243.8" font-family="Times,serif" font-size="14.00">PersonService </text>
</g>
<!-- PersonModule&#45;&gt;PersonService  -->
<g id="edge25" class="edge">
<title>PersonModule&#45;&gt;PersonService </title>
<path fill="none" stroke="black" stroke-dasharray="5,2" d="M1662.72,-171C1872.85,-171 2691,-171 2691,-171 2691,-171 2691,-219.75 2691,-219.75"/>
<polygon fill="black" stroke="black" points="2687.5,-219.75 2691,-229.75 2694.5,-219.75 2687.5,-219.75"/>
</g>
<!-- PrescriptionDetailModule -->
<g id="node9" class="node">
<title>PrescriptionDetailModule</title>
<polygon fill="#8dd3c7" stroke="black" points="1296.91,-198 1293.91,-202 1272.91,-202 1269.91,-198 1135.09,-198 1135.09,-162 1296.91,-162 1296.91,-198"/>
<text text-anchor="middle" x="1216" y="-175.8" font-family="Times,serif" font-size="14.00">PrescriptionDetailModule</text>
</g>
<!-- PrescriptionDetailModule&#45;&gt;AppModule -->
<g id="edge9" class="edge">
<title>PrescriptionDetailModule&#45;&gt;AppModule</title>
<path fill="none" stroke="black" d="M1216,-198.03C1216,-217.58 1216,-246 1216,-246 1216,-246 931.88,-246 931.88,-246"/>
<polygon fill="black" stroke="black" points="931.88,-242.5 921.88,-246 931.88,-249.5 931.88,-242.5"/>
</g>
<!-- PrescriptionModule -->
<g id="node10" class="node">
<title>PrescriptionModule</title>
<polygon fill="#8dd3c7" stroke="black" points="1441.7,-198 1438.7,-202 1417.7,-202 1414.7,-198 1314.3,-198 1314.3,-162 1441.7,-162 1441.7,-198"/>
<text text-anchor="middle" x="1378" y="-175.8" font-family="Times,serif" font-size="14.00">PrescriptionModule</text>
</g>
<!-- PrescriptionModule&#45;&gt;AppModule -->
<g id="edge10" class="edge">
<title>PrescriptionModule&#45;&gt;AppModule</title>
<path fill="none" stroke="black" d="M1378,-198.28C1378,-219.32 1378,-251 1378,-251 1378,-251 932.03,-251 932.03,-251"/>
<polygon fill="black" stroke="black" points="932.03,-247.5 922.03,-251 932.03,-254.5 932.03,-247.5"/>
</g>
<!-- SpecialtyModule -->
<g id="node11" class="node">
<title>SpecialtyModule</title>
<polygon fill="#8dd3c7" stroke="black" points="1116.65,-198 1113.65,-202 1092.65,-202 1089.65,-198 1005.35,-198 1005.35,-162 1116.65,-162 1116.65,-198"/>
<text text-anchor="middle" x="1061" y="-175.8" font-family="Times,serif" font-size="14.00">SpecialtyModule</text>
</g>
<!-- SpecialtyModule&#45;&gt;AppModule -->
<g id="edge11" class="edge">
<title>SpecialtyModule&#45;&gt;AppModule</title>
<path fill="none" stroke="black" d="M1061,-198.3C1061,-216.27 1061,-241 1061,-241 1061,-241 931.98,-241 931.98,-241"/>
<polygon fill="black" stroke="black" points="931.98,-237.5 921.98,-241 931.98,-244.5 931.98,-237.5"/>
</g>
<!-- AppService -->
<g id="node13" class="node">
<title>AppService</title>
<ellipse fill="#fdb462" stroke="black" cx="176" cy="-180" rx="56.74" ry="18"/>
<text text-anchor="middle" x="176" y="-175.8" font-family="Times,serif" font-size="14.00">AppService</text>
</g>
<!-- AppService&#45;&gt;AppModule -->
<g id="edge12" class="edge">
<title>AppService&#45;&gt;AppModule</title>
<path fill="none" stroke="black" d="M176,-198.15C176,-221.76 176,-260 176,-260 176,-260 828.33,-260 828.33,-260"/>
<polygon fill="black" stroke="black" points="828.33,-263.5 838.33,-260 828.33,-256.5 828.33,-263.5"/>
</g>
<!-- AppointmentService -->
<g id="node14" class="node">
<title>AppointmentService</title>
<ellipse fill="#fdb462" stroke="black" cx="115" cy="-104" rx="90.91" ry="18"/>
<text text-anchor="middle" x="115" y="-99.8" font-family="Times,serif" font-size="14.00">AppointmentService</text>
</g>
<!-- AppointmentService&#45;&gt;AppointmentModule -->
<g id="edge13" class="edge">
<title>AppointmentService&#45;&gt;AppointmentModule</title>
<path fill="none" stroke="black" d="M206.07,-104C225.04,-104 239.41,-104 239.41,-104 239.41,-104 239.41,-180 239.41,-180 239.41,-180 246.94,-180 246.94,-180"/>
<polygon fill="black" stroke="black" points="246.94,-183.5 256.94,-180 246.94,-176.5 246.94,-183.5"/>
</g>
<!-- AuthService -->
<g id="node18" class="node">
<title>AuthService</title>
<ellipse fill="#fdb462" stroke="black" cx="1916" cy="-248" rx="59.11" ry="18"/>
<text text-anchor="middle" x="1916" y="-243.8" font-family="Times,serif" font-size="14.00">AuthService</text>
</g>
<!-- AuthService&#45;&gt;AuthModule -->
<g id="edge17" class="edge">
<title>AuthService&#45;&gt;AuthModule</title>
<path fill="none" stroke="black" d="M1916,-229.88C1916,-227.03 1916,-225 1916,-225 1916,-225 1513.94,-225 1513.94,-225 1513.94,-225 1513.94,-208.04 1513.94,-208.04"/>
<polygon fill="black" stroke="black" points="1517.44,-208.04 1513.94,-198.04 1510.44,-208.04 1517.44,-208.04"/>
</g>
<!-- JwtAuthGuard -->
<g id="node19" class="node">
<title>JwtAuthGuard</title>
<ellipse fill="#fdb462" stroke="black" cx="1771" cy="-248" rx="67.78" ry="18"/>
<text text-anchor="middle" x="1771" y="-243.8" font-family="Times,serif" font-size="14.00">JwtAuthGuard</text>
</g>
<!-- JwtAuthGuard&#45;&gt;AuthModule -->
<g id="edge18" class="edge">
<title>JwtAuthGuard&#45;&gt;AuthModule</title>
<path fill="none" stroke="black" d="M1720.26,-236C1651.13,-236 1535.83,-236 1535.83,-236 1535.83,-236 1535.83,-208.03 1535.83,-208.03"/>
<polygon fill="black" stroke="black" points="1539.33,-208.03 1535.83,-198.03 1532.33,-208.03 1539.33,-208.03"/>
</g>
<!-- JwtStrategy -->
<g id="node20" class="node">
<title>JwtStrategy</title>
<ellipse fill="#fdb462" stroke="black" cx="2050" cy="-248" rx="56.76" ry="18"/>
<text text-anchor="middle" x="2050" y="-243.8" font-family="Times,serif" font-size="14.00">JwtStrategy</text>
</g>
<!-- JwtStrategy&#45;&gt;AuthModule -->
<g id="edge19" class="edge">
<title>JwtStrategy&#45;&gt;AuthModule</title>
<path fill="none" stroke="black" d="M2050,-229.79C2050,-224.45 2050,-220 2050,-220 2050,-220 1524.89,-220 1524.89,-220 1524.89,-220 1524.89,-208.13 1524.89,-208.13"/>
<polygon fill="black" stroke="black" points="1528.39,-208.13 1524.89,-198.13 1521.39,-208.13 1528.39,-208.13"/>
</g>
<!-- DoctorService -->
<g id="node21" class="node">
<title>DoctorService</title>
<ellipse fill="#fdb462" stroke="black" cx="313" cy="-104" rx="66.61" ry="18"/>
<text text-anchor="middle" x="313" y="-99.8" font-family="Times,serif" font-size="14.00">DoctorService</text>
</g>
<!-- DoctorService&#45;&gt;DoctorModule -->
<g id="edge20" class="edge">
<title>DoctorService&#45;&gt;DoctorModule</title>
<path fill="none" stroke="black" d="M380.08,-104C398.94,-104 414.42,-104 414.42,-104 414.42,-104 414.42,-151.99 414.42,-151.99"/>
<polygon fill="black" stroke="black" points="410.92,-151.99 414.42,-161.99 417.92,-151.99 410.92,-151.99"/>
</g>
<!-- InvoiceService -->
<g id="node22" class="node">
<title>InvoiceService</title>
<ellipse fill="#fdb462" stroke="black" cx="489" cy="-104" rx="68.9" ry="18"/>
<text text-anchor="middle" x="489" y="-99.8" font-family="Times,serif" font-size="14.00">InvoiceService</text>
</g>
<!-- InvoiceService&#45;&gt;InvoiceModule -->
<g id="edge21" class="edge">
<title>InvoiceService&#45;&gt;InvoiceModule</title>
<path fill="none" stroke="black" d="M541.59,-115.88C541.59,-115.88 541.59,-151.99 541.59,-151.99"/>
<polygon fill="black" stroke="black" points="538.09,-151.99 541.59,-161.99 545.09,-151.99 538.09,-151.99"/>
</g>
<!-- MedicineService -->
<g id="node23" class="node">
<title>MedicineService</title>
<ellipse fill="#fdb462" stroke="black" cx="674" cy="-104" rx="76.42" ry="18"/>
<text text-anchor="middle" x="674" y="-99.8" font-family="Times,serif" font-size="14.00">MedicineService</text>
</g>
<!-- MedicineService&#45;&gt;MedicineModule -->
<g id="edge22" class="edge">
<title>MedicineService&#45;&gt;MedicineModule</title>
<path fill="none" stroke="black" d="M697.63,-121.25C697.63,-121.25 697.63,-151.76 697.63,-151.76"/>
<polygon fill="black" stroke="black" points="694.13,-151.76 697.63,-161.76 701.13,-151.76 694.13,-151.76"/>
</g>
<!-- OfficeService -->
<g id="node24" class="node">
<title>OfficeService</title>
<ellipse fill="#fdb462" stroke="black" cx="855" cy="-104" rx="64.8" ry="18"/>
<text text-anchor="middle" x="855" y="-99.8" font-family="Times,serif" font-size="14.00">OfficeService</text>
</g>
<!-- OfficeService&#45;&gt;OfficeModule -->
<g id="edge23" class="edge">
<title>OfficeService&#45;&gt;OfficeModule</title>
<path fill="none" stroke="black" d="M830.5,-120.87C830.5,-120.87 830.5,-151.85 830.5,-151.85"/>
<polygon fill="black" stroke="black" points="827,-151.85 830.5,-161.85 834,-151.85 827,-151.85"/>
</g>
<!-- PatientService -->
<g id="node25" class="node">
<title>PatientService</title>
<ellipse fill="#fdb462" stroke="black" cx="1027" cy="-104" rx="66.63" ry="18"/>
<text text-anchor="middle" x="1027" y="-99.8" font-family="Times,serif" font-size="14.00">PatientService</text>
</g>
<!-- PatientService&#45;&gt;PatientModule -->
<g id="edge24" class="edge">
<title>PatientService&#45;&gt;PatientModule</title>
<path fill="none" stroke="black" d="M973.7,-114.89C973.7,-114.89 973.7,-151.79 973.7,-151.79"/>
<polygon fill="black" stroke="black" points="970.2,-151.79 973.7,-161.79 977.2,-151.79 970.2,-151.79"/>
</g>
<!-- PersonService -->
<g id="node27" class="node">
<title>PersonService</title>
<ellipse fill="#fdb462" stroke="black" cx="2551" cy="-248" rx="66.05" ry="18"/>
<text text-anchor="middle" x="2551" y="-243.8" font-family="Times,serif" font-size="14.00">PersonService</text>
</g>
<!-- PersonService&#45;&gt;PersonModule -->
<g id="edge26" class="edge">
<title>PersonService&#45;&gt;PersonModule</title>
<path fill="none" stroke="black" d="M2551,-229.78C2551,-209.63 2551,-180 2551,-180 2551,-180 1672.73,-180 1672.73,-180"/>
<polygon fill="black" stroke="black" points="1672.73,-176.5 1662.73,-180 1672.73,-183.5 1672.73,-176.5"/>
</g>
<!-- PrescriptionDetailService -->
<g id="node28" class="node">
<title>PrescriptionDetailService</title>
<ellipse fill="#fdb462" stroke="black" cx="1244" cy="-104" rx="110" ry="18"/>
<text text-anchor="middle" x="1244" y="-99.8" font-family="Times,serif" font-size="14.00">PrescriptionDetailService</text>
</g>
<!-- PrescriptionDetailService&#45;&gt;PrescriptionDetailModule -->
<g id="edge27" class="edge">
<title>PrescriptionDetailService&#45;&gt;PrescriptionDetailModule</title>
<path fill="none" stroke="black" d="M1216,-121.63C1216,-121.63 1216,-151.94 1216,-151.94"/>
<polygon fill="black" stroke="black" points="1212.5,-151.94 1216,-161.94 1219.5,-151.94 1212.5,-151.94"/>
</g>
<!-- PrescriptionService -->
<g id="node29" class="node">
<title>PrescriptionService</title>
<ellipse fill="#fdb462" stroke="black" cx="1481" cy="-104" rx="86.81" ry="18"/>
<text text-anchor="middle" x="1481" y="-99.8" font-family="Times,serif" font-size="14.00">PrescriptionService</text>
</g>
<!-- PrescriptionService&#45;&gt;PrescriptionModule -->
<g id="edge28" class="edge">
<title>PrescriptionService&#45;&gt;PrescriptionModule</title>
<path fill="none" stroke="black" d="M1417.97,-116.55C1417.97,-116.55 1417.97,-151.74 1417.97,-151.74"/>
<polygon fill="black" stroke="black" points="1414.47,-151.74 1417.97,-161.74 1421.47,-151.74 1414.47,-151.74"/>
</g>
<!-- TemplatePlaygroundComponent -->
<g id="node30" class="node">
<title>TemplatePlaygroundComponent</title>
<polygon fill="#ffffb3" stroke="black" points="3566.25,-122 3367.75,-122 3367.75,-86 3566.25,-86 3566.25,-122"/>
<text text-anchor="middle" x="3467" y="-99.8" font-family="Times,serif" font-size="14.00">TemplatePlaygroundComponent</text>
</g>
<!-- TemplatePlaygroundModule -->
<g id="node31" class="node">
<title>TemplatePlaygroundModule</title>
<polygon fill="#8dd3c7" stroke="black" points="3248.47,-198 3245.47,-202 3224.47,-202 3221.47,-198 3071.53,-198 3071.53,-162 3248.47,-162 3248.47,-198"/>
<text text-anchor="middle" x="3160" y="-175.8" font-family="Times,serif" font-size="14.00">TemplatePlaygroundModule</text>
</g>
<!-- TemplatePlaygroundComponent&#45;&gt;TemplatePlaygroundModule -->
<g id="edge29" class="edge">
<title>TemplatePlaygroundComponent&#45;&gt;TemplatePlaygroundModule</title>
<path fill="none" stroke="black" d="M3467,-122.01C3467,-144.49 3467,-180 3467,-180 3467,-180 3258.8,-180 3258.8,-180"/>
<polygon fill="black" stroke="black" points="3258.8,-176.5 3248.8,-180 3258.8,-183.5 3258.8,-176.5"/>
</g>
<!-- TemplatePlaygroundComponent  -->
<g id="node32" class="node">
<title>TemplatePlaygroundComponent </title>
<polygon fill="#80b1d3" stroke="black" points="3261.25,-266 3058.75,-266 3058.75,-230 3261.25,-230 3261.25,-266"/>
<text text-anchor="middle" x="3160" y="-243.8" font-family="Times,serif" font-size="14.00">TemplatePlaygroundComponent </text>
</g>
<!-- TemplatePlaygroundModule&#45;&gt;TemplatePlaygroundComponent  -->
<g id="edge30" class="edge">
<title>TemplatePlaygroundModule&#45;&gt;TemplatePlaygroundComponent </title>
<path fill="none" stroke="black" stroke-dasharray="1,5" d="M3160,-198.22C3160,-198.22 3160,-219.73 3160,-219.73"/>
<polygon fill="black" stroke="black" points="3156.5,-219.73 3160,-229.73 3163.5,-219.73 3156.5,-219.73"/>
</g>
<!-- HbsRenderService -->
<g id="node33" class="node">
<title>HbsRenderService</title>
<ellipse fill="#fdb462" stroke="black" cx="3261" cy="-104" rx="83.37" ry="18"/>
<text text-anchor="middle" x="3261" y="-99.8" font-family="Times,serif" font-size="14.00">HbsRenderService</text>
</g>
<!-- HbsRenderService&#45;&gt;TemplatePlaygroundModule -->
<g id="edge31" class="edge">
<title>HbsRenderService&#45;&gt;TemplatePlaygroundModule</title>
<path fill="none" stroke="black" d="M3213.03,-119.02C3213.03,-119.02 3213.03,-151.8 3213.03,-151.8"/>
<polygon fill="black" stroke="black" points="3209.53,-151.8 3213.03,-161.8 3216.53,-151.8 3209.53,-151.8"/>
</g>
<!-- TemplateEditorService -->
<g id="node34" class="node">
<title>TemplateEditorService</title>
<ellipse fill="#fdb462" stroke="black" cx="3059" cy="-104" rx="100.7" ry="18"/>
<text text-anchor="middle" x="3059" y="-99.8" font-family="Times,serif" font-size="14.00">TemplateEditorService</text>
</g>
<!-- TemplateEditorService&#45;&gt;TemplatePlaygroundModule -->
<g id="edge32" class="edge">
<title>TemplateEditorService&#45;&gt;TemplatePlaygroundModule</title>
<path fill="none" stroke="black" d="M3115.56,-119.02C3115.56,-119.02 3115.56,-151.8 3115.56,-151.8"/>
<polygon fill="black" stroke="black" points="3112.06,-151.8 3115.56,-161.8 3119.06,-151.8 3112.06,-151.8"/>
</g>
<!-- ZipExportService -->
<g id="node35" class="node">
<title>ZipExportService</title>
<ellipse fill="#fdb462" stroke="black" cx="2861" cy="-104" rx="79.87" ry="18"/>
<text text-anchor="middle" x="2861" y="-99.8" font-family="Times,serif" font-size="14.00">ZipExportService</text>
</g>
<!-- ZipExportService&#45;&gt;TemplatePlaygroundModule -->
<g id="edge33" class="edge">
<title>ZipExportService&#45;&gt;TemplatePlaygroundModule</title>
<path fill="none" stroke="black" d="M2861,-122.03C2861,-146.98 2861,-189 2861,-189 2861,-189 3061.5,-189 3061.5,-189"/>
<polygon fill="black" stroke="black" points="3061.5,-192.5 3071.5,-189 3061.5,-185.5 3061.5,-192.5"/>
</g>
</g>
</svg>
